<svg width="180" height="180" viewBox="0 0 180 180" fill="none" xmlns="http://www.w3.org/2000/svg">
<path d="M8 27H173V153H8V27Z" stroke="black" stroke-width="6"/>
<path d="M26.3057 70.1404C23.223 70.1404 20.4405 69.5273 17.9585 68.3012C15.4763 67.0751 13.3345 65.4198 11.5329 63.3354C9.73137 61.2102 8.33016 58.8396 7.3293 56.2239C6.36848 53.5673 5.88807 50.8494 5.88807 48.0702C5.88807 45.1683 6.40851 42.4096 7.44941 39.7939C8.49029 37.1372 9.93153 34.7872 11.7732 32.7437C13.6147 30.6593 15.7766 29.0244 18.2587 27.8392C20.7809 26.6131 23.5032 26 26.4258 26C29.4683 26 32.2307 26.6335 34.7129 27.9005C37.235 29.1675 39.3768 30.8636 41.1384 32.9889C42.9399 35.1142 44.3211 37.4847 45.282 40.1004C46.2828 42.7161 46.7832 45.3932 46.7832 48.1315C46.7832 51.0334 46.2627 53.8125 45.2219 56.4691C44.221 59.0848 42.7998 61.4349 40.9582 63.5193C39.1166 65.5629 36.9348 67.1772 34.4126 68.3625C31.9304 69.5478 29.2281 70.1404 26.3057 70.1404V70.1404ZM12.734 48.0702C12.734 50.1138 13.0542 52.0959 13.6948 54.0169C14.3353 55.9378 15.2361 57.6544 16.3971 59.1666C17.5982 60.6379 19.0394 61.8028 20.7209 62.661C22.4023 63.5193 24.2838 63.9485 26.3657 63.9485C28.5276 63.9485 30.4492 63.4988 32.1307 62.5997C33.8121 61.7006 35.2132 60.4948 36.3343 58.9827C37.4952 57.4295 38.376 55.713 38.9765 53.833C39.5771 51.912 39.8773 49.9912 39.8773 48.0702C39.8773 46.0266 39.557 44.0648 38.9165 42.1848C38.316 40.2638 37.4152 38.5677 36.2142 37.0964C35.0131 35.5842 33.5719 34.3989 31.8905 33.5406C30.249 32.6824 28.4075 32.2532 26.3657 32.2532C24.2038 32.2532 22.2822 32.7028 20.6008 33.602C18.9193 34.5011 17.498 35.7068 16.3371 37.219C15.1761 38.7312 14.2753 40.4274 13.6348 42.3074C13.0343 44.1874 12.734 46.1084 12.734 48.0702V48.0702ZM107.973 26.3065V69.8338H101.187V50.645H79.6886V69.8338H72.9629V26.3065H79.6886V44.5144H101.187V26.3065H107.973V26.3065ZM154.522 70.1404C151.441 70.1404 148.658 69.5273 146.175 68.3012C143.694 67.0751 141.551 65.4198 139.75 63.3354C137.948 61.2102 136.548 58.8396 135.546 56.2239C134.585 53.5673 134.105 50.8494 134.105 48.0702C134.105 45.1683 134.626 42.4096 135.666 39.7939C136.708 37.1372 138.149 34.7872 139.99 32.7437C141.832 30.6593 143.994 29.0244 146.475 27.8392C148.998 26.6131 151.72 26 154.643 26C157.686 26 160.448 26.6335 162.93 27.9005C165.452 29.1675 167.594 30.8636 169.355 32.9889C171.157 35.1142 172.538 37.4847 173.499 40.1004C174.5 42.7161 175 45.3932 175 48.1315C175 51.0334 174.48 53.8125 173.439 56.4691C172.438 59.0848 171.017 61.4349 169.175 63.5193C167.334 65.5629 165.152 67.1772 162.629 68.3625C160.148 69.5478 157.446 70.1404 154.522 70.1404V70.1404ZM140.951 48.0702C140.951 50.1138 141.271 52.0959 141.912 54.0169C142.553 55.9378 143.454 57.6544 144.614 59.1666C145.815 60.6379 147.256 61.8028 148.938 62.661C150.619 63.5193 152.501 63.9485 154.582 63.9485C156.744 63.9485 158.666 63.4988 160.347 62.5997C162.029 61.7006 163.43 60.4948 164.551 58.9827C165.712 57.4295 166.593 55.713 167.193 53.833C167.794 51.912 168.094 49.9912 168.094 48.0702C168.094 46.0266 167.775 44.0648 167.133 42.1848C166.533 40.2638 165.632 38.5677 164.431 37.0964C163.23 35.5842 161.789 34.3989 160.107 33.5406C158.467 32.6824 156.624 32.2532 154.582 32.2532C152.421 32.2532 150.499 32.7028 148.818 33.602C147.136 34.5011 145.715 35.7068 144.554 37.219C143.394 38.7312 142.493 40.4274 141.852 42.3074C141.251 44.1874 140.951 46.1084 140.951 48.0702V48.0702ZM40.1902 75.2901H26.018V112.748H19.2322V75.2901H5V69.2208H40.1902V75.2901ZM81.7586 106.679V112.748H52.5135V69.2208H81.2182V75.2901H59.2393V87.6739H78.2756V93.3754H59.2393V106.679H81.7586V106.679ZM95.3626 112.748V69.2208H125.329V75.2288H102.088V87.4287H114.579C119.303 87.4287 122.846 88.573 125.209 90.8618C127.57 93.1097 128.752 96.0933 128.752 99.8125C128.752 102.306 128.231 104.533 127.191 106.495C126.189 108.416 124.668 109.949 122.627 111.093C120.624 112.196 118.082 112.748 114.999 112.748H95.3626V112.748ZM102.088 106.74H114.099C115.94 106.74 117.422 106.393 118.542 105.698C119.704 105.003 120.525 104.124 121.005 103.062C121.525 101.958 121.786 100.814 121.786 99.6286C121.786 98.4433 121.565 97.3398 121.125 96.3181C120.685 95.2963 119.883 94.4789 118.723 93.8658C117.602 93.2119 116.02 92.8849 113.979 92.8849H102.088V106.74ZM170.914 106.679V112.748H141.669V69.2208H170.374V75.2901H148.395V87.6739H167.431V93.3754H148.395V106.679H170.914V106.679ZM40.0405 112.135V155.662H33.2547V136.474H11.7562V155.662H5.03049V112.135H11.7562V130.343H33.2547V112.135H40.0405V112.135ZM63.1702 112.135H69.5357L86.11 155.662H79.0239L74.52 143.83H58.0659L53.622 155.662H46.4759L63.1702 112.135V112.135ZM73.1989 138.742L66.353 119.676L59.2669 138.742H73.1989ZM85.8581 164V149.593H87.8999C89.0208 149.593 89.9816 149.143 90.7823 148.244C91.623 147.346 92.3236 145.915 92.8841 143.953C93.4846 141.991 93.945 139.416 94.2653 136.228C94.6256 133 94.8858 129.056 95.046 124.396L95.3463 112.135H122.79V149.593H128.195V164H122.249V155.662H91.8032V164H85.8581V164ZM96.4272 149.593H116.004V118.204H101.592L101.411 125.316C101.291 130.016 101.051 134.001 100.691 137.271C100.331 140.499 99.81 143.115 99.1295 145.118C98.4489 147.12 97.5481 148.612 96.4272 149.593V149.593ZM154.285 155.969C151.202 155.969 148.42 155.356 145.937 154.13C143.455 152.904 141.313 151.248 139.512 149.164C137.71 147.039 136.309 144.668 135.308 142.052C134.347 139.396 133.867 136.678 133.867 133.899C133.867 130.997 134.387 128.238 135.428 125.622C136.47 122.966 137.911 120.616 139.752 118.572C141.593 116.488 143.755 114.853 146.238 113.668C148.76 112.442 151.483 111.829 154.405 111.829C157.447 111.829 160.209 112.462 162.692 113.729C165.214 114.996 167.355 116.692 169.117 118.817C170.919 120.943 172.3 123.313 173.261 125.929C174.261 128.545 174.762 131.222 174.762 133.96C174.762 136.862 174.242 139.641 173.201 142.298C172.2 144.913 170.778 147.263 168.937 149.348C167.096 151.392 164.914 153.005 162.392 154.191C159.909 155.377 157.207 155.969 154.285 155.969V155.969ZM140.713 133.899C140.713 135.942 141.034 137.924 141.674 139.845C142.314 141.766 143.215 143.483 144.376 144.995C145.577 146.466 147.018 147.631 148.7 148.49C150.381 149.348 152.263 149.777 154.345 149.777C156.507 149.777 158.428 149.327 160.11 148.428C161.791 147.529 163.193 146.323 164.313 144.811C165.475 143.258 166.355 141.541 166.955 139.661C167.556 137.741 167.856 135.82 167.856 133.899C167.856 131.855 167.536 129.893 166.895 128.013C166.295 126.092 165.394 124.396 164.193 122.925C162.992 121.413 161.551 120.227 159.869 119.369C158.228 118.511 156.386 118.082 154.345 118.082C152.183 118.082 150.261 118.531 148.58 119.43C146.898 120.33 145.477 121.535 144.316 123.048C143.155 124.56 142.254 126.256 141.614 128.136C141.013 130.016 140.713 131.937 140.713 133.899V133.899Z" fill="black"/>
</svg>
